Coordinates
version=1
nRows=32
nColumns=12
inDegrees=yes

Units are S.I. units (second, meters, Newtons, ...)
Angles are in degrees

endheader
time	SC_y	SC_z	SC_x	AC_y	AC_z	AC_x	GH_y	GH_z	GH_yy	EL_x	PS_y
       0.0              -15.72          11.32          6.436          60.55          8.256         0.6744          156.8          69.42         -41.67          16.15          55.84
  0.001781              -15.73          11.32          6.445          60.55          8.253         0.6749          156.8          69.41         -41.66          16.15          55.84
  0.003562              -15.73          11.32          6.455          60.55           8.25         0.6754          156.7          69.41         -41.65          16.16          55.84
  0.005343              -15.74          11.33          6.465          60.55          8.247          0.676          156.7          69.41         -41.64          16.17          55.85
  0.007123              -15.75          11.33          6.476          60.54          8.244         0.6766          156.6           69.4         -41.63          16.18          55.85
  0.008904              -15.75          11.34          6.488          60.54           8.24         0.6773          156.6           69.4         -41.62          16.19          55.85
   0.01069              -15.76          11.34            6.5          60.54          8.237         0.6779          156.5           69.4         -41.61           16.2          55.86
   0.01247              -15.77          11.35          6.514          60.54          8.232         0.6787          156.5          69.39         -41.59          16.21          55.86
   0.01425              -15.78          11.36          6.528          60.53          8.228         0.6795          156.4          69.39         -41.58          16.22          55.87
   0.01603              -15.79          11.36          6.543          60.53          8.223         0.6803          156.3          69.38         -41.57          16.23          55.87
   0.01781               -15.8          11.37           6.56          60.53          8.219         0.6812          156.2          69.38         -41.55          16.24          55.88
   0.01959              -15.81          11.38          6.578          60.52          8.213         0.6822          156.1          69.37         -41.53          16.26          55.89
   0.02137              -15.82          11.39          6.597          60.52          8.207         0.6833          156.1          69.37         -41.52          16.27          55.89
   0.02315              -15.83          11.39          6.617          60.51          8.201         0.6844          156.0          69.36          -41.5          16.29           55.9
   0.02493              -15.84           11.4           6.64          60.51          8.194         0.6857          155.9          69.35         -41.48           16.3          55.91
   0.02671              -15.86          11.41          6.664          60.51          8.187          0.687          155.7          69.35         -41.45          16.32          55.92
   0.02849              -15.88          11.43           6.69           60.5          8.179         0.6885          155.6          69.34         -41.43          16.34          55.93
   0.03027              -15.89          11.44          6.719          60.49           8.17         0.6901          155.5          69.33          -41.4          16.37          55.94
   0.03206              -15.91          11.45           6.75          60.49          8.161         0.6918          155.3          69.32         -41.37          16.39          55.95
   0.03384              -15.93          11.47          6.784          60.48          8.151         0.6937          155.2          69.31         -41.34          16.42          55.96
   0.03562              -15.96          11.48          6.822          60.47          8.139         0.6958          155.0           69.3         -41.31          16.45          55.98
    0.0374              -15.98           11.5          6.863          60.46          8.127         0.6981          154.8          69.29         -41.27          16.48          55.99
   0.03918              -16.01          11.52          6.909          60.45          8.113         0.7006          154.6          69.27         -41.22          16.51          56.01
   0.04096              -16.04          11.54           6.96          60.44          8.097         0.7034          154.3          69.26         -41.18          16.55          56.03
   0.04274              -16.07          11.57          7.016          60.43           8.08         0.7066          154.1          69.24         -41.12           16.6          56.05
   0.04452              -16.11          11.59          7.079          60.42          8.061           0.71          153.8          69.22         -41.06          16.65          56.07
    0.0463              -16.16          11.62          7.149           60.4           8.04         0.7139          153.4           69.2          -41.0           16.7           56.1
   0.04808               -16.2          11.66          7.229          60.39          8.016         0.7183          153.0          69.18         -40.92          16.76          56.12
   0.04986              -16.26           11.7          7.318          60.37          7.989         0.7233          152.6          69.15         -40.84          16.83          56.16
   0.05165              -16.32          11.74           7.42          60.34          7.958         0.7289          152.1          69.12         -40.74          16.91          56.19
   0.05343              -16.39          11.79          7.536          60.32          7.923         0.7354          151.6          69.08         -40.64           17.0          56.24
   0.05521              -16.47          11.85          7.669          60.29          7.883         0.7428          150.9          69.04         -40.51           17.1          56.28
